# xmcd
#
# Track frame offsets:
#	150
#	15441
#	29319
#	44916
#	57143
#	71452
#	83185
#	96325
#	112895
#	125427
#	137270
#	151282
#	171990
#	186828
#	199472
#	215572
#	229092
#	246454
#	258597
#	275344
#	288991
#	301047
#	317245
#	328484
#
# Disc length: 4614 seconds
#
# Revision: 0
# Processed by: cddbd v1.5.2PL0 Copyright (c) Steve Scherf et al.
# Submitted via: EasyCDDAExtractor 12.0.1.1
#
DISCID=65120418
DTITLE=Dolly Parton
DYEAR=2000
DGENRE=Country
TTITLE0=Applejack
TTITLE1=Coat Of Many Colors
TTITLE2=Country road
TTITLE3=Divorce
TTITLE4=Harper Valley PTA
TTITLE5=Hold Me
TTITLE6=I Will Always Love You
TTITLE7=If Only
TTITLE8=In The Ghetto
TTITLE9=Jolene
TTITLE10=Just because I'm a woman
TTITLE11=Just when I needed you most
TTITLE12=Marry Me
TTITLE13=9 to 5
TTITLE14=Romeo
TTITLE15=Rose Garden
TTITLE16=Save The Last Dance For Me
TTITLE17=Stand by your man
TTITLE18=The Grass Is Blue
TTITLE19=The Seeker
TTITLE20=To Daddy (original version)
TTITLE21=Wildflowers
TTITLE22=Wishful thinking
TTITLE23=Yellow Roses
EXTD=
EXTT0=
EXTT1=
EXTT2=
EXTT3=
EXTT4=
EXTT5=
EXTT6=
EXTT7=
EXTT8=
EXTT9=
EXTT10=
EXTT11=
EXTT12=
EXTT13=
EXTT14=
EXTT15=
EXTT16=
EXTT17=
EXTT18=
EXTT19=
EXTT20=
EXTT21=
EXTT22=
EXTT23=
PLAYORDER=
